<svg width="100" height="113" viewBox="0 0 100 113" fill="none" xmlns="http://www.w3.org/2000/svg">
<path d="M99.7598 68.5853L91.8527 53.0546C91.4759 52.3146 90.7159 51.8486 89.8854 51.8486H50.0002H10.1146C9.28417 51.8486 8.52412 52.3146 8.1473 53.0546L0.240245 68.5853C-0.108099 69.2698 -0.0758695 70.0859 0.325455 70.7407C0.726779 71.3954 1.43958 71.7943 2.20735 71.7943H4.96276V110.76C4.96276 111.979 5.95106 112.968 7.17026 112.968H92.8229C94.0421 112.968 95.0304 111.979 95.0304 110.76V71.7945H97.7923C98.5602 71.7945 99.273 71.3954 99.6741 70.7409C100.076 70.0859 100.108 69.2698 99.7598 68.5853ZM88.5322 56.2636L94.1916 67.3793H59.2605L53.6011 56.2636H88.5322ZM11.468 56.2636H46.3991L40.7398 67.3793H5.80867L11.468 56.2636ZM90.6159 108.553H52.2077V96.3183C52.2077 95.0994 51.2194 94.1108 50.0002 94.1108C48.781 94.1108 47.7927 95.0994 47.7927 96.3183V108.553H9.37821V71.7945H42.0932C42.9236 71.7945 43.6837 71.3287 44.0605 70.5886L47.7927 63.2577V76.4952C47.7927 77.7142 48.781 78.7027 50.0002 78.7027C51.2194 78.7027 52.2077 77.7142 52.2077 76.4952V63.2577L55.94 70.5886C56.3168 71.3287 57.0768 71.7945 57.9073 71.7945H90.6159V108.553Z" fill="black"/>
<path d="M31.1232 96.4629H18.5532C17.334 96.4629 16.3457 97.4514 16.3457 98.6704C16.3457 99.8894 17.334 100.878 18.5532 100.878H31.1232C32.3424 100.878 33.3307 99.8894 33.3307 98.6704C33.3307 97.4514 32.3424 96.4629 31.1232 96.4629Z" fill="black"/>
<path d="M50.0002 45.3571C62.4912 45.3571 72.6536 35.1821 72.6536 22.6755C72.6534 10.1722 62.4912 0 50.0002 0C37.5057 0 27.3406 10.1722 27.3406 22.6755C27.3406 35.1821 37.5055 45.3571 50.0002 45.3571ZM50.0002 4.41501C60.0569 4.41501 68.2386 12.6066 68.2386 22.6755C68.2386 32.7479 60.0569 40.9421 50.0002 40.9421C39.9402 40.9421 31.7556 32.7479 31.7556 22.6755C31.7556 12.6066 39.94 4.41501 50.0002 4.41501Z" fill="black"/>
<path d="M40.1031 25.9866L45.9788 30.9671C46.379 31.3064 46.8854 31.4907 47.4061 31.4907C47.4688 31.4907 47.5317 31.4881 47.5947 31.4828C48.1805 31.4325 48.722 31.1508 49.0993 30.6998L60.1567 17.4844C60.939 16.5495 60.8152 15.1572 59.8803 14.3746C58.9452 13.5927 57.5532 13.7161 56.7708 14.6512L47.139 26.1627L42.9582 22.6186C42.0282 21.8303 40.6351 21.9446 39.847 22.8751C39.0582 23.8053 39.173 25.198 40.1031 25.9866Z" fill="black"/>
<path d="M6.6331 24.8828H16.1841C17.4033 24.8828 18.3916 23.8943 18.3916 22.6753C18.3916 21.4563 17.4033 20.4678 16.1841 20.4678H6.6331C5.4139 20.4678 4.4256 21.4563 4.4256 22.6753C4.4256 23.8943 5.4139 24.8828 6.6331 24.8828Z" fill="black"/>
<path d="M5.60336 9.52275L15.1543 14.5601C15.4828 14.7333 15.8349 14.8155 16.1824 14.8155C16.9749 14.8155 17.7413 14.3874 18.1369 13.6373C18.7056 12.559 18.2925 11.2236 17.2142 10.655L7.66296 5.61768C6.58504 5.04903 5.24928 5.46183 4.68062 6.54042C4.11197 7.61878 4.525 8.9541 5.60336 9.52275Z" fill="black"/>
<path d="M4.67991 38.8095C5.07527 39.5601 5.84172 39.9888 6.63488 39.9888C6.98167 39.9888 7.33377 39.9069 7.66181 39.734L17.2128 34.7031C18.2914 34.1349 18.7053 32.7998 18.1371 31.7212C17.5689 30.6424 16.2338 30.2287 15.1552 30.7967L5.60419 35.8276C4.52561 36.3958 4.11192 37.7309 4.67991 38.8095Z" fill="black"/>
<path d="M83.81 24.8828H93.361C94.5802 24.8828 95.5685 23.8943 95.5685 22.6753C95.5685 21.4563 94.5802 20.4678 93.361 20.4678H83.81C82.5908 20.4678 81.6025 21.4563 81.6025 22.6753C81.6025 23.8943 82.5908 24.8828 83.81 24.8828Z" fill="black"/>
<path d="M83.8117 14.8156C84.1589 14.8156 84.5112 14.7335 84.8397 14.5602L94.3907 9.5229C95.4691 8.95425 95.8821 7.61893 95.3134 6.54057C94.7446 5.4622 93.4095 5.04874 92.3311 5.61783L82.7801 10.6551C81.7018 11.2238 81.2887 12.5591 81.8574 13.6375C82.253 14.3876 83.019 14.8156 83.8117 14.8156Z" fill="black"/>
<path d="M82.781 34.7023L92.332 39.7332C92.6603 39.906 93.0122 39.9879 93.359 39.9879C94.1521 39.9879 94.9186 39.5595 95.3139 38.8087C95.8821 37.7301 95.4682 36.395 94.3896 35.8268L84.8387 30.7959C83.7599 30.2277 82.425 30.6414 81.8568 31.7204C81.2886 32.799 81.7025 34.1341 82.781 34.7023Z" fill="black"/>
<path d="M50.0003 84.1992C48.7811 84.1992 47.7928 85.1877 47.7928 86.4067V86.4193C47.7928 87.6383 48.7811 88.6206 50.0003 88.6206C51.2195 88.6206 52.2078 87.6259 52.2078 86.4069C52.2078 85.188 51.2195 84.1992 50.0003 84.1992Z" fill="black"/>
</svg>
