<svg width="100" height="100" viewBox="0 0 100 100" fill="none" xmlns="http://www.w3.org/2000/svg">
<path d="M99.3023 35.8731L88.1301 6.82552C86.0131 1.33435 79.8453 -1.40083 74.3541 0.716222C74.2744 0.747025 74.1949 0.77866 74.1158 0.811336L18.285 23.9548C12.9689 26.1356 10.3561 32.1531 12.3926 37.5263L13.9277 41.6238H10.4063C4.66179 41.6303 0.00645188 46.2856 0 52.0301V89.4926C0.00645188 95.237 4.66179 99.8924 10.4063 99.8988H81.1688C86.9132 99.8924 91.5686 95.237 91.575 89.4926V52.0301C91.5717 51.4652 91.5215 50.9016 91.4252 50.3451L93.3582 49.5625C98.7218 47.3641 101.358 41.2931 99.3023 35.8731ZM10.4063 44.954H81.1688C84.9059 44.9646 87.9886 47.8832 88.2034 51.614H3.37163C3.58641 47.883 6.66916 44.9644 10.4063 44.954ZM27.1412 34.9241L38.27 29.358L40.5577 35.0806L29.4289 40.645L27.1412 34.9241ZM88.245 89.4928C88.2404 93.3991 85.0751 96.5645 81.1688 96.569H10.4063C6.49995 96.5645 3.33458 93.3991 3.33 89.4928V68.264H88.245V89.4928ZM88.245 64.934H3.33V54.944H88.245V64.934ZM92.1095 46.4858L90.3696 47.1901C88.5724 43.7719 85.0307 41.6294 81.1688 41.624H34.9184L43.4182 37.3733C44.1933 36.9864 44.5423 36.0698 44.2207 35.2654L40.6893 26.4409C40.3477 25.5872 39.3789 25.1717 38.5252 25.5131C38.4821 25.5303 38.4399 25.5493 38.3984 25.5701L24.2809 32.633C23.5065 33.0206 23.1583 33.9369 23.48 34.7409L26.234 41.624H17.4825L15.5111 36.366C14.1136 32.6742 15.9087 28.5409 19.5604 27.042L75.3895 3.89845C79.1219 2.35084 83.4022 4.12177 84.95 7.85408C84.9741 7.91215 84.9974 7.97063 85.0199 8.02932L96.1921 37.0769C97.6054 40.8013 95.795 44.9738 92.1095 46.4858Z" fill="black"/>
<path d="M59.8932 91.8867C62.9959 93.6893 66.8273 93.6893 69.9301 91.8867C74.7007 94.6583 80.815 93.0377 83.5866 88.267C86.3582 83.4964 84.7375 77.3821 79.9669 74.6105C78.4357 73.721 76.6958 73.2543 74.9251 73.2585C73.1697 73.2593 71.446 73.7257 69.9301 74.6105C65.1594 71.8389 59.0451 73.4593 56.2735 78.23C53.5019 83.0008 55.1226 89.1149 59.8932 91.8867ZM72.7139 76.995C73.4222 76.734 74.1702 76.5966 74.9251 76.5887C78.6032 76.5887 81.5851 79.5705 81.5851 83.2487C81.5851 86.9269 78.6032 89.9087 74.9251 89.9087C74.1702 89.9008 73.4222 89.7634 72.7139 89.5025C75.6618 85.8542 75.6618 80.643 72.7139 76.995ZM69.9301 78.8897C72.1501 81.3718 72.1501 85.1256 69.9301 87.6077C67.71 85.1256 67.71 81.3716 69.9301 78.8897ZM64.9351 76.5887C65.6899 76.5964 66.4379 76.734 67.1462 76.995C64.1983 80.643 64.1983 85.8544 67.1462 89.5025C66.4379 89.7634 65.6899 89.9008 64.9351 89.9087C61.2569 89.9087 58.275 86.9269 58.275 83.2487C58.275 79.5703 61.2569 76.5887 64.9351 76.5887Z" fill="black"/>
<path d="M70.2337 34.3613L71.5863 37.4043L87.4705 30.3435L86.1179 27.3005L70.2337 34.3613Z" fill="black"/>
<path d="M82.5731 20.252L59.6298 30.8418L61.0247 33.8639L83.968 23.2741L82.5731 20.252Z" fill="black"/>
</svg>
