<svg width="100" height="100" viewBox="0 0 100 100" fill="none" xmlns="http://www.w3.org/2000/svg">
<path d="M59.1851 12.0266C58.1347 11.7736 57.0814 12.4191 56.8287 13.4676C56.576 14.5162 57.2211 15.5713 58.2697 15.824C74.1001 19.6402 85.1561 33.6936 85.1561 49.9994C85.1561 69.3844 69.3853 85.1554 50 85.1554C30.6148 85.1554 14.844 69.3844 14.844 49.9994C14.844 33.6942 25.8994 19.6408 41.729 15.8242C42.7776 15.5713 43.4227 14.5162 43.17 13.4678C42.917 12.4191 41.8616 11.7744 40.8135 12.0267C32.4386 14.0461 24.8509 18.8873 19.4484 25.6585C13.8807 32.6368 10.9377 41.0537 10.9377 49.9994C10.9377 71.5383 28.4611 89.0616 50 89.0616C71.539 89.0616 89.0623 71.5385 89.0623 49.9994C89.0623 41.0535 86.1193 32.6364 80.5512 25.6579C75.1485 18.8869 67.5605 14.0457 59.1851 12.0266Z" fill="black"/>
<path d="M98.823 45.3021L96.538 41.039L96.9191 35.7687C97.2855 32.3906 95.938 29.0938 93.3099 26.9438L89.517 23.8379L88.025 19.3434C87.1894 15.9069 84.5795 13.1448 81.1932 12.122L76.5114 10.7076L72.9258 6.56305C70.8044 4.06755 67.5933 2.76952 64.3357 3.08963L59.4763 3.57381L54.6996 1.17753C51.7558 -0.391795 48.2461 -0.393162 45.302 1.17734L41.0391 3.46209L35.769 3.08084C32.3896 2.71444 29.0939 4.06209 26.9441 6.69L23.838 10.4829L19.3437 11.9749C15.907 12.8105 13.1449 15.4204 12.1221 18.8065L10.7078 23.4883L6.56334 27.0741C4.06804 29.1955 2.76922 32.4061 3.08973 35.6642L3.5739 40.5236L1.17763 45.3003C-0.391892 48.2442 -0.393064 51.7538 1.17724 54.6981L3.46219 58.961L3.08094 64.2313C2.71473 67.6094 4.06218 70.906 6.6901 73.0562L10.483 76.162L11.975 80.6566C12.8104 84.0931 15.4203 86.8551 18.8068 87.878L23.4884 89.2922L27.0742 93.437C29.1958 95.9323 32.4056 97.2311 35.6643 96.9104L40.5235 96.4262L45.2998 98.8221C46.7723 99.6072 48.3863 100 50.0004 100C51.6133 100 53.2261 99.6078 54.6978 98.8229L58.9609 96.5381L64.231 96.9194C67.6089 97.285 70.9057 95.9381 73.0561 93.3102L76.1619 89.5173L80.6567 88.0255C84.093 87.1899 86.8549 84.58 87.8777 81.1937L89.2922 76.512L93.4369 72.9263C95.9321 70.8049 97.231 67.5943 96.9105 64.336L96.4261 59.477L98.8222 54.7003C100.392 51.7561 100.393 48.2464 98.823 45.3021ZM95.3669 52.8774C95.3583 52.8934 95.3499 52.9095 95.3419 52.9255L92.6806 58.2311C92.5148 58.5616 92.4462 58.9325 92.4828 59.3006L93.0232 64.7205C93.2181 66.7023 92.4269 68.6574 90.8939 69.9609L86.3084 73.9281C86.0287 74.1701 85.8236 74.4863 85.7168 74.8402L84.1385 80.0638C83.5094 82.1466 81.8002 83.7479 79.6781 84.2427C79.6201 84.2561 79.5627 84.2724 79.5063 84.2911L74.3942 85.9878C74.0432 86.1044 73.7325 86.318 73.4983 86.6042L70.0335 90.8358C68.7175 92.4444 66.6958 93.2659 64.6271 93.0331C64.6013 93.0301 64.5753 93.0278 64.5497 93.0258L58.6783 92.6012C58.3085 92.5747 57.9406 92.6532 57.6148 92.8278L52.8562 95.3782C51.0617 96.3352 48.9184 96.3313 47.1225 95.367C47.1065 95.3586 47.0904 95.3502 47.0744 95.3422L41.769 92.6809C41.4963 92.5442 41.1963 92.4735 40.8932 92.4735C40.8288 92.4735 40.7641 92.4766 40.6995 92.483L35.2796 93.0231C33.298 93.2188 31.3427 92.4268 30.0392 90.894L26.072 86.3085C25.8302 86.0288 25.5138 85.8235 25.1597 85.7167L19.9361 84.1388C17.8531 83.5097 16.252 81.8005 15.7572 79.6782C15.7438 79.6202 15.7275 79.563 15.7088 79.5064L14.0121 74.3941C13.8957 74.0431 13.682 73.7326 13.3959 73.4984L9.1645 70.0334C7.55591 68.7174 6.73443 66.6963 6.96724 64.6272C6.97017 64.6014 6.97252 64.5756 6.97447 64.5496L7.39908 58.678C7.42584 58.3092 7.34712 57.9405 7.17252 57.6145L4.62195 52.8563C3.66492 51.0618 3.66902 48.9185 4.63288 47.1226C4.64148 47.1068 4.64968 47.0907 4.65769 47.0747L7.319 41.7691C7.48482 41.4386 7.55337 41.0677 7.51665 40.6998L6.97662 35.2795C6.7817 33.2977 7.57291 31.3426 9.1059 30.0391L13.6914 26.0719C13.9711 25.8299 14.1762 25.5137 14.2832 25.1598L15.8613 19.936C16.4904 17.8532 18.1996 16.2521 20.3219 15.7571C20.3799 15.7437 20.4371 15.7274 20.4937 15.7087L25.6056 14.0118C25.9566 13.8954 26.2671 13.6818 26.5013 13.3956L29.9665 9.16401C31.2825 7.55562 33.3042 6.73453 35.3727 6.96695C35.3985 6.96988 35.4243 6.97222 35.4501 6.97418L41.3215 7.39878C41.6893 7.42496 42.059 7.34683 42.385 7.17222L47.1434 4.62185C48.9377 3.66482 51.0812 3.66873 52.8769 4.63279C52.8927 4.64118 52.9088 4.64958 52.925 4.65759L58.2306 7.3189C58.5611 7.48472 58.932 7.55347 59.2999 7.51656L64.72 6.97652C66.7017 6.78121 68.6569 7.57281 69.9604 9.10581L73.9276 13.6913C74.1694 13.971 74.4858 14.1761 74.8399 14.2831L80.0635 15.8612C82.1463 16.4903 83.7475 18.1997 84.2424 20.3218C84.2559 20.3798 84.2721 20.437 84.2908 20.4936L85.9877 25.6055C86.1043 25.9565 86.3177 26.267 86.6039 26.5012L90.8355 29.9662C92.4441 31.2822 93.2654 33.3031 93.0326 35.3724C93.0296 35.3982 93.0273 35.424 93.0255 35.45L92.6009 41.3216C92.5742 41.6904 92.6529 42.0591 92.8273 42.3851L95.3779 47.1435C96.3351 48.9384 96.331 51.0817 95.3669 52.8774Z" fill="black"/>
<path d="M41.5237 39.3585C41.2105 38.6983 40.5396 38.2407 39.7603 38.2407H29.4406C28.3619 38.2407 27.4875 39.1151 27.4875 40.1938V69.7573C27.4875 70.836 28.3619 71.7104 29.4406 71.7104H39.7603C40.5698 71.7104 41.2642 71.2181 41.5603 70.5163C43.0491 70.7253 44.5829 71.1487 46.1798 71.5909C48.5805 72.2556 51.0627 72.9429 53.6418 72.9429H64.917C68.4025 72.9429 71.2269 71.095 72.4724 67.9995C73.079 66.4913 73.1853 64.9261 72.8308 63.6158C73.4792 63.0328 74.0273 62.307 74.4417 61.4595C75.2817 59.7423 75.4495 57.8113 74.9733 56.1849C75.8608 55.3275 76.5229 54.1953 76.869 52.8604C77.1927 51.6123 77.187 50.3809 76.8991 49.3139C78.6608 48.2776 79.8473 46.3948 79.8473 44.2733C79.8473 42.6094 79.1995 41.0762 78.0229 39.9563C76.8933 38.8809 75.3886 38.2886 73.7862 38.2886L57.8936 38.289C56.6861 36.7743 56.3104 34.7189 56.9979 33.0644C58.4088 29.6687 58.3213 26.7943 56.7149 23.7447C55.5223 21.4812 52.3157 19.2277 49.6206 19.6125C47.9915 19.8453 46.8128 20.9967 46.4671 22.6928C46.3653 23.1918 46.3374 23.7308 46.3052 24.3551C46.2255 25.8949 46.1161 28.0039 44.7868 30.5505C43.8858 32.2769 43.5852 34.0525 43.32 35.619C42.9401 37.8632 42.756 38.9442 41.5237 39.3585ZM31.3937 42.1469H37.8072V67.8042H31.3937V42.1469ZM47.1716 36.271C47.3991 34.9271 47.6342 33.5372 48.2499 32.3581C49.9731 29.0566 50.119 26.24 50.2063 24.5572C50.2295 24.109 50.2514 23.6855 50.2948 23.4726C50.295 23.4713 50.2954 23.4697 50.2958 23.4683C50.9733 23.4777 52.6407 24.3924 53.2588 25.5658C54.3287 27.5962 54.3643 29.2226 53.3909 31.5659C52.5129 33.6788 52.5789 36.1306 53.4473 38.3104C52.4971 38.4427 51.7651 39.2561 51.7651 40.2427C51.7651 41.3212 52.6397 42.1958 53.7182 42.1958L73.7862 42.1952C74.3814 42.1952 74.9296 42.4049 75.3296 42.7858C75.6087 43.0512 75.9411 43.5251 75.9411 44.2735C75.9411 45.3211 74.9808 46.227 73.8439 46.2518L68.8167 46.3612C67.7384 46.3846 66.8832 47.2778 66.9066 48.3563C66.9298 49.4203 67.7994 50.267 68.8585 50.267C68.8728 50.267 68.8872 50.267 68.9019 50.2666L73.0886 50.1756C73.2251 50.5625 73.2962 51.3006 73.0087 52.1461C72.764 52.8652 72.1072 54.0715 70.4548 54.0715C69.3763 54.0715 68.5017 54.9459 68.5017 56.0246C68.5017 57.1033 69.3763 57.9777 70.4548 57.9777C70.7509 57.9777 71.0415 57.9593 71.3259 57.9232C71.3501 58.4759 71.2364 59.1234 70.9331 59.7433C70.5745 60.4761 69.8658 61.35 68.5255 61.35C67.447 61.35 66.5724 62.2244 66.5724 63.3031C66.5724 64.3818 67.447 65.2562 68.5255 65.2562C68.7277 65.2562 68.9277 65.2472 69.1251 65.2294C69.1201 65.6042 69.0439 66.0728 68.8308 66.5853C68.5246 67.3224 67.5298 69.0366 64.9173 69.0366H53.6422C51.594 69.0366 49.4706 68.4487 47.2225 67.8263C45.4337 67.331 43.5995 66.8236 41.7138 66.597V43.3114C46.111 42.5145 46.7173 38.9548 47.1716 36.271Z" fill="black"/>
<path d="M50.0004 14.8437C51.0791 14.8437 51.9535 13.9693 51.9535 12.8906C51.9535 11.8119 51.0791 10.9375 50.0004 10.9375H49.999C48.9203 10.9375 48.0467 11.8119 48.0467 12.8906C48.0467 13.9693 48.9217 14.8437 50.0004 14.8437Z" fill="black"/>
</svg>
